<svg width="13" height="12" viewBox="0 0 13 12" fill="none" xmlns="http://www.w3.org/2000/svg">
<path fill-rule="evenodd" clip-rule="evenodd" d="M0.75 5.5C0.75 2.73857 2.98857 0.5 5.75 0.5C8.07919 0.5 10.0363 2.0925 10.592 4.24828C10.0073 3.93051 9.33724 3.75 8.625 3.75C8.01056 3.75 7.4275 3.88434 6.90359 4.12525C6.80439 4.03694 6.67403 3.98334 6.53125 3.98334C6.2206 3.98334 5.96875 4.23706 5.96875 4.55001C5.96875 4.6026 5.97586 4.65352 5.98917 4.70185C5.07927 5.4585 4.5 6.5991 4.5 7.875C4.5 8.8679 4.85081 9.77887 5.43523 10.4907C5.07299 10.4656 4.70828 10.4027 4.34236 10.3046L2.89726 10.9253C2.5613 11.0696 2.17337 11.019 1.88562 10.7934C1.59787 10.5678 1.45619 10.2031 1.51614 9.84246L1.74118 8.48858C1.11911 7.65514 0.75 6.61983 0.75 5.5ZM10.7388 5.5734C10.6694 6.04942 10.2637 6.41886 9.76704 6.42764C9.24818 6.43682 8.81464 6.04915 8.75607 5.5442L7 5.75L6.63439 8.4467C7.05 8.50298 7.40144 8.81895 7.4829 9.25376C7.57845 9.76379 7.26853 10.2559 6.78048 10.3978C6.00414 9.82927 5.5 8.91101 5.5 7.875C5.5 6.14911 6.89911 4.75 8.625 4.75C9.44018 4.75 10.1825 5.06213 10.7388 5.5734ZM4.28125 5.11669C4.5919 5.11669 4.84375 4.86299 4.84375 4.55001C4.84375 4.23706 4.5919 3.98334 4.28125 3.98334C3.9706 3.98334 3.71875 4.23706 3.71875 4.55001C3.71875 4.86299 3.9706 5.11669 4.28125 5.11669Z" fill="white"/>
<mask id="path-2-inside-1_1_46270" fill="white">
<path fill-rule="evenodd" clip-rule="evenodd" d="M11.0006 8.99316L11.25 10.5L10.1904 9.98229"/>
</mask>
<path fill-rule="evenodd" clip-rule="evenodd" d="M11.0006 8.99316L11.25 10.5L10.1904 9.98229" fill="white"/>
<path d="M11.25 10.5L11.0305 10.9492L11.9016 11.3748L11.7433 10.4183L11.25 10.5ZM10.5073 9.07481L10.7567 10.5816L11.7433 10.4183L11.4939 8.91152L10.5073 9.07481ZM11.4695 10.0507L10.4099 9.53304L9.97094 10.4315L11.0305 10.9492L11.4695 10.0507Z" fill="white" mask="url(#path-2-inside-1_1_46270)"/>
<path d="M11.0006 8.99316L11.25 10.5L10.1904 9.98229" stroke="white" stroke-width="2" stroke-linecap="round" stroke-linejoin="round"/>
<path fill-rule="evenodd" clip-rule="evenodd" d="M10.5073 9.59542C10.5383 9.62079 10.5666 9.6503 10.5916 9.68384C10.7564 9.90538 10.7105 10.2186 10.4889 10.3835C9.96853 10.7707 9.32283 11 8.625 11C6.89911 11 5.5 9.60089 5.5 7.875C5.5 6.14911 6.89911 4.75 8.625 4.75C10.3509 4.75 11.75 6.14911 11.75 7.875C11.75 8.35018 11.6436 8.80192 11.4528 9.20647C11.335 9.45623 11.0371 9.56322 10.7873 9.44544C10.7494 9.42755 10.7148 9.4055 10.6837 9.3801L10.5073 9.59542ZM9.42188 7.69998C9.18887 7.69998 9 7.5097 9 7.27498C9 7.04025 9.18887 6.84998 9.42188 6.84998C9.65487 6.84998 9.84375 7.04025 9.84375 7.27498C9.84375 7.5097 9.65487 7.69998 9.42188 7.69998ZM7.3125 7.27498C7.3125 7.5097 7.50137 7.69998 7.73438 7.69998C7.96738 7.69998 8.15625 7.5097 8.15625 7.27498C8.15625 7.04025 7.96738 6.84998 7.73438 6.84998C7.50137 6.84998 7.3125 7.04025 7.3125 7.27498Z" fill="white"/>
</svg>
